HIERARCHY
ROOT Hips
{
 OFFSET 0.000000 0.000000 0.000000
 CHANNELS 6 Xposition Yposition Zposition Yrotation Xrotation Zrotation
 JOINT Chest
 {
  OFFSET 0.000000 10.597006 0.000597
  CHANNELS 3 Yrotation Xrotation Zrotation
  JOINT Chest2
  {
   OFFSET 0.000000 11.704727 -0.001085
   CHANNELS 3 Yrotation Xrotation Zrotation
   JOINT Chest3
   {
    OFFSET 0.000000 10.576076 0.000000
    CHANNELS 3 Yrotation Xrotation Zrotation
    JOINT Chest4
    {
     OFFSET 0.000000 10.576076 0.000000
     CHANNELS 3 Yrotation Xrotation Zrotation
     JOINT Neck
     {
      OFFSET 0.000000 14.869514 0.000000
      CHANNELS 3 Yrotation Xrotation Zrotation
      JOINT Head
      {
       OFFSET 0.000000 9.843597 -0.002580
       CHANNELS 3 Yrotation Xrotation Zrotation
       End Site
       {
        OFFSET 0.000000 18.838042 -0.001347
       }
      }
     }
     JOINT RightCollar
     {
      OFFSET -3.229945 8.296076 0.000000
      CHANNELS 3 Yrotation Xrotation Zrotation
      JOINT RightShoulder
      {
       OFFSET -15.063183 0.000000 0.000000
       CHANNELS 3 Yrotation Xrotation Zrotation
       JOINT RightElbow
       {
        OFFSET 0.000000 -32.186481 0.000000
        CHANNELS 3 Yrotation Xrotation Zrotation
        JOINT RightWrist
        {
         OFFSET 0.000000 -26.328084 0.000000
         CHANNELS 3 Yrotation Xrotation Zrotation
         End Site
         {
          OFFSET 0.000000 -19.694862 0.000000
         }
        }
       }
      }
     }
     JOINT LeftCollar
     {
      OFFSET 3.229945 8.296076 0.000000
      CHANNELS 3 Yrotation Xrotation Zrotation
      JOINT LeftShoulder
      {
       OFFSET 15.063183 0.000000 0.000000
       CHANNELS 3 Yrotation Xrotation Zrotation
       JOINT LeftElbow
       {
        OFFSET 0.000000 -32.186481 0.000000
        CHANNELS 3 Yrotation Xrotation Zrotation
        JOINT LeftWrist
        {
         OFFSET 0.000000 -26.328084 0.000000
         CHANNELS 3 Yrotation Xrotation Zrotation
         End Site
         {
          OFFSET 0.000000 -19.694862 0.000000
         }
        }
       }
      }
     }
    }
   }
  }
 }
 JOINT RightHip
 {
  OFFSET -8.601177 -0.002926 -0.000299
  CHANNELS 3 Yrotation Xrotation Zrotation
  JOINT RightKnee
  {
   OFFSET 0.000000 -44.528051 0.000282
   CHANNELS 3 Yrotation Xrotation Zrotation
   JOINT RightAnkle
   {
    OFFSET 0.000000 -43.560721 0.000478
    CHANNELS 3 Yrotation Xrotation Zrotation
    JOINT RightToe
    {
     OFFSET 0.000000 -7.669527 17.403862
     CHANNELS 3 Yrotation Xrotation Zrotation
     End Site
     {
      OFFSET 0.000000 -1.627843 7.076630
     }
    }
   }
  }
 }
 JOINT LeftHip
 {
  OFFSET 8.601177 -0.002926 -0.000299
  CHANNELS 3 Yrotation Xrotation Zrotation
  JOINT LeftKnee
  {
   OFFSET 0.000000 -44.528051 0.000282
   CHANNELS 3 Yrotation Xrotation Zrotation
   JOINT LeftAnkle
   {
    OFFSET 0.000000 -43.560721 0.000478
    CHANNELS 3 Yrotation Xrotation Zrotation
    JOINT LeftToe
    {
     OFFSET 0.000000 -7.669527 17.403862
     CHANNELS 3 Yrotation Xrotation Zrotation
     End Site
     {
      OFFSET 0.000000 -1.627843 7.076630
     }
    }
   }
  }
 }
}
MOTION
Frames: 11
Frame Time: 0.008333
364.794470 89.716901 41.644124 -82.328091 3.240503 1.612794 0.031483 24.890963 -2.586640 0.232423 11.058513 -0.919598 0.232423 11.058513 -0.919598 0.190597 8.293560 -0.691792 0.226357 22.503654 1.150212 0.094181 5.610170 2.013986 -0.190545 -0.592177 12.254406 2.099753 -24.905279 -25.276688 17.937323 -23.869736 1.051965 3.062417 -15.885690 -6.314320 -3.859099 2.420468 -7.595010 -6.945804 -26.846551 29.744988 0.224381 -11.944926 0.952466 -14.790362 -17.608755 -8.111716 -1.764793 -36.195895 -4.418231 7.343525 48.923519 6.763686 2.240879 -15.140113 1.032216 -0.188610 -0.218292 0.212736 4.227850 -31.572323 1.445458 -6.529075 41.380236 -13.376605 6.355286 -15.324452 2.898476 0.628757 0.874634 0.420685
365.039792 89.497482 41.591428 -82.380139 3.657177 1.645190 0.015179 24.927383 -2.633508 0.229090 11.089611 -0.938463 0.229090 11.089611 -0.938463 0.188497 8.316882 -0.705835 0.241932 22.490789 1.169385 0.116874 5.586224 2.044390 -0.144372 -0.577288 12.230109 2.185567 -25.030699 -25.262809 17.793608 -23.864401 1.121236 2.850070 -15.864589 -6.181034 -3.888648 2.444647 -7.598792 -7.040656 -26.917775 29.808670 0.115770 -11.927957 0.911691 -15.073963 -17.692864 -7.997932 -1.422318 -37.111483 -4.539375 7.604169 49.507062 7.085871 1.977484 -15.193032 0.938960 -0.191542 -0.304057 0.228416 4.293778 -32.480522 1.447630 -6.748214 41.976778 -13.656040 6.398724 -15.422379 2.881100 0.654602 0.848876 0.428956
365.286866 89.277039 41.535492 -82.426381 4.063293 1.661741 0.002021 24.968439 -2.664763 0.230023 11.122364 -0.955427 0.230023 11.122364 -0.955427 0.189555 8.341440 -0.718534 0.254978 22.474669 1.195454 0.133069 5.556334 2.087948 -0.127193 -0.571655 12.215677 2.290031 -25.153761 -25.246596 17.659902 -23.855111 1.187653 2.703712 -15.804010 -6.087252 -3.929301 2.449598 -7.591591 -7.130712 -26.972413 29.849107 -0.053189 -11.987453 0.870377 -15.289520 -17.703503 -7.888391 -1.076759 -38.004553 -4.661181 7.860668 50.067349 7.411174 1.726316 -15.247884 0.871499 -0.209282 -0.373638 0.222695 4.295922 -33.388376 1.503293 -6.946080 42.579886 -13.951779 6.427210 -15.508747 2.861762 0.697324 0.811905 0.440719
365.531086 89.055705 41.477084 -82.461943 4.438900 1.666901 -0.011560 25.027244 -2.687716 0.231254 11.156375 -0.967693 0.231254 11.156375 -0.967693 0.190754 8.366942 -0.727727 0.264386 22.458229 1.214122 0.144711 5.525836 2.119143 -0.118855 -0.563855 12.197493 2.384947 -25.277029 -25.226482 17.545112 -23.833396 1.239375 2.630853 -15.741868 -6.045062 -3.961140 2.468964 -7.594118 -7.238091 -27.035472 29.904377 -0.155135 -11.998283 0.818711 -15.543191 -17.798838 -7.755178 -0.788971 -38.853368 -4.739378 8.114817 50.608339 7.692254 1.485650 -15.318048 0.836027 -0.225703 -0.419517 0.202642 4.289624 -34.256627 1.564382 -7.153619 43.164752 -14.239119 6.467532 -15.609838 2.845481 0.734597 0.794898 0.445732
365.777454 88.833526 41.412585 -82.472837 4.813558 1.660835 -0.035452 25.080565 -2.691824 0.230929 11.189558 -0.977978 0.230929 11.189558 -0.977978 0.190752 8.391827 -0.735408 0.272871 22.442945 1.237971 0.153277 5.497545 2.159940 -0.114186 -0.570262 12.188589 2.484208 -25.393778 -25.205502 17.458215 -23.799100 1.273327 2.583944 -15.667912 -6.005760 -4.012472 2.487776 -7.584086 -7.337182 -27.080807 29.932019 -0.281549 -12.080212 0.775693 -15.725688 -17.825801 -7.658429 -0.530538 -39.691290 -4.785861 8.319144 51.139276 7.917812 1.226414 -15.398272 0.823526 -0.207159 -0.447627 0.182499 4.271926 -35.127671 1.618996 -7.353164 43.744529 -14.493027 6.512092 -15.705932 2.828836 0.755280 0.783061 0.441332
366.022374 88.610385 41.351703 -82.473743 5.173740 1.672065 -0.077897 25.148349 -2.715463 0.227714 11.222007 -0.987454 0.227714 11.222007 -0.987454 0.188575 8.416166 -0.742431 0.280504 22.427149 1.253276 0.162632 5.468237 2.185550 -0.100101 -0.579289 12.177796 2.572124 -25.517383 -25.186451 17.399238 -23.748914 1.290836 2.548290 -15.597524 -5.964450 -4.052050 2.516436 -7.589495 -7.462902 -27.138101 29.969725 -0.315975 -12.109466 0.737170 -15.943560 -17.929074 -7.545024 -0.306447 -40.509199 -4.844105 8.531368 51.661669 8.126463 1.007447 -15.495032 0.844794 -0.203625 -0.455628 0.142494 4.254625 -35.975687 1.640758 -7.533738 44.314543 -14.721645 6.566162 -15.805255 2.813724 0.750006 0.777493 0.430940
366.265039 88.389159 41.286865 -82.467734 5.534970 1.678447 -0.129286 25.210367 -2.731406 0.223052 11.254235 -0.996522 0.223052 11.254235 -0.996522 0.185310 8.440342 -0.749123 0.286612 22.413866 1.269404 0.169043 5.443628 2.213051 -0.087065 -0.604443 12.168241 2.661799 -25.635115 -25.161078 17.357449 -23.682311 1.304532 2.524287 -15.508204 -5.903555 -4.112897 2.546263 -7.589412 -7.574242 -27.181389 29.982443 -0.367582 -12.215847 0.707277 -16.097582 -17.956153 -7.454601 -0.112014 -41.327907 -4.894204 8.737801 52.182510 8.334853 0.810879 -15.584702 0.878148 -0.199311 -0.466340 0.094078 4.192286 -36.815103 1.693108 -7.685004 44.866314 -14.934280 6.608095 -15.900801 2.758715 0.765874 0.777296 0.445309
366.505485 88.170355 41.223440 -82.414917 5.897819 1.703355 -0.235181 25.263755 -2.761912 0.215403 11.286501 -1.005255 0.215403 11.286501 -1.005255 0.179806 8.464551 -0.755506 0.293411 22.406703 1.279942 0.178319 5.430321 2.230244 -0.055272 -0.612219 12.153491 2.724884 -25.768387 -25.145972 17.315239 -23.617073 1.324201 2.484572 -15.434791 -5.817379 -4.158017 2.595577 -7.591747 -7.701365 -27.235380 30.004033 -0.337944 -12.273222 0.670361 -16.285029 -18.055047 -7.344805 0.027308 -42.143086 -4.975679 8.939950 52.692999 8.549786 0.677629 -15.652850 0.923765 -0.216671 -0.491969 0.032209 4.067094 -37.645272 1.763256 -7.819389 45.403050 -15.167937 6.575621 -16.025299 2.686089 0.842699 0.809699 0.496746
366.735413 87.952279 41.157343 -82.377895 6.236259 1.722541 -0.322441 25.343149 -2.778457 0.203231 11.318047 -1.012475 0.203231 11.318047 -1.012475 0.170893 8.488228 -0.760673 0.302710 22.400710 1.285577 0.193471 5.419099 2.237892 -0.014027 -0.610698 12.122889 2.783406 -25.929084 -25.119769 17.281943 -23.530818 1.357491 2.428249 -15.341188 -5.710084 -4.204490 2.632807 -7.605503 -7.834063 -27.265966 30.024837 -0.319605 -12.401293 0.613621 -16.434210 -18.081688 -7.230431 0.121390 -42.927974 -5.017233 9.141916 53.203947 8.747750 0.553879 -15.744149 0.959302 -0.209544 -0.496612 -0.015663 3.942692 -38.440751 1.837766 -7.946857 45.924282 -15.383112 6.605122 -16.123656 2.606499 0.863110 0.817862 0.525031
366.956652 87.737290 41.088481 -82.329459 6.565259 1.752945 -0.426971 25.421978 -2.801970 0.187373 11.350537 -1.021434 0.187373 11.350537 -1.021434 0.159260 8.512620 -0.767069 0.313602 22.403583 1.278113 0.215225 5.424193 2.221411 0.036642 -0.605453 12.071920 2.833816 -26.091383 -25.095916 17.224020 -23.436144 1.412799 2.366419 -15.263009 -5.590718 -4.240881 2.671873 -7.628429 -7.966042 -27.301145 30.061350 -0.240991 -12.469284 0.541042 -16.645925 -18.187336 -7.063721 0.160063 -43.693936 -5.035307 9.331406 53.707903 8.907739 0.462998 -15.842233 0.989649 -0.204259 -0.493564 -0.052508 3.817798 -39.209935 1.909979 -8.107559 46.415227 -15.628758 6.654302 -16.220700 2.528877 0.885684 0.830090 0.549991
367.172110 87.524084 41.013287 -82.295744 6.899676 1.777323 -0.514894 25.494814 -2.819765 0.172501 11.383598 -1.031922 0.172501 11.383598 -1.031922 0.148395 8.537438 -0.774624 0.327043 22.411702 1.282811 0.238318 5.439103 2.226167 0.079120 -0.617077 12.030280 2.899487 -26.247213 -25.081693 17.176309 -23.334155 1.472404 2.291763 -15.163036 -5.454834 -4.279290 2.705388 -7.649833 -8.092884 -27.337608 30.091962 -0.246265 -12.596134 0.470635 -16.809056 -18.247706 -6.879727 0.182781 -44.457163 -5.037806 9.526154 54.195244 9.074600 0.404597 -15.932309 1.001925 -0.207496 -0.487432 -0.081079 3.717385 -39.983916 1.989814 -8.308899 46.904734 -15.899596 6.708734 -16.308731 2.446445 0.910539 0.828792 0.573680
